<svg viewBox="0 0 3087 6399">
    <path stroke="red" stroke-width="3" fill="none" d="M1111,246 L1115,263 L1122,279 L1131,293 L1144,305 L1158,314 L1174,320 L1191,323 L1208,323 L1225,320 L1241,313 L1254,303 L1266,291 L1276,276 L1282,260 L1285,244 L1285,226 L1281,209 L1274,194 L1265,180 L1252,168 L1238,158 L1222,152 L1205,149 L1188,150 L1171,153 L1156,160 L1142,170 L1130,182 L1120,197 L1114,212 L1111,229 L1111,246 L1115,263 L1122,279 L1131,293 L1144,305 L1153,311 L1150,314 M1355,246 L1350,247 L1354,264 L1361,279 L1370,293 L1383,305 L1398,315 L1413,321 L1430,324 L1448,324 L1465,320 L1480,313 L1494,304 L1506,291 L1516,276 L1522,261 L1525,244 L1525,226 L1521,209 L1515,194 L1505,180 L1492,168 L1478,158 L1462,152 L1445,149 L1428,149 L1410,153 L1395,159 L1381,169 L1369,182 L1359,196 L1353,212 L1350,229 L1350,246 L1354,264 L1361,279 L1370,293 L1383,305 L1392,311 L1389,314 M1595,246 L1590,247 L1598,267 L1614,283 L1634,292 L1656,293 L1677,285 L1693,269 L1702,249 L1702,227 L1694,206 L1679,190 L1659,181 L1636,181 L1616,189 L1600,204 L1591,224 L1590,247 L1598,267 L1614,283 L1634,292 L1647,293 L1644,299 M1915,244 L1909,247 L1917,270 L1934,287 L1956,298 L1981,299 L2004,290 L2022,273 L2032,251 L2033,227 L2025,203 L2008,186 L1986,175 L1961,174 L1938,183 L1920,200 L1910,222 L1909,247 L1917,270 L1934,287 L1956,298 L1962,298 M2863,84 L2859,90 L2852,91 L2846,87 L2843,81 L2644,81 L1828,81 L1821,88 L1826,94 L1826,101 L1827,117 L1822,125 L1814,130 L1804,132 L1795,130 L1354,130 L1346,124 L1341,116 L1340,107 L1341,97 L1340,81 L1335,74 L1329,80 L1321,81 L505,81 L461,84 L419,91 L378,102 L339,117 L302,135 L267,158 L233,185 L201,215 L172,249 L147,283 L126,320 L109,358 L96,397 L87,439 L82,481 L81,525 L81,5975 L84,6019 L91,6061 L102,6102 L117,6141 L135,6178 L158,6213 L185,6247 L215,6279 L249,6308 L283,6333 L320,6354 L358,6371 L397,6384 L439,6393 L481,6398 L525,6399 L2664,6399 L2708,6396 L2750,6390 L2791,6379 L2830,6364 L2867,6345 L2902,6322 L2936,6296 L2968,6265 L2997,6232 L3022,6197 L3043,6160 L3060,6122 L3073,6083 L3082,6042 L3087,5999 L3088,5955 L3088,505 L3085,461 L3078,419 L3067,378 L3052,339 L3034,302 L3011,267 L2984,233 L2954,201 L2921,172 L2886,147 L2849,126 L2811,109 L2772,96 L2730,87 L2688,82 L2644,81 L2464,81 M3087,0" />
</svg>
